<mxfile host="app.diagrams.net" modified="2022-11-04T10:16:26.857Z" agent="5.0 (Windows NT 10.0; Win64; x64) AppleWebKit/537.36 (KHTML, like Gecko) Chrome/107.0.0.0 Safari/537.36" etag="beIzhc2YfmJQpJ4v_1fY" version="20.5.1" type="github">
  <diagram id="R2lEEEUBdFMjLlhIrx00" name="Page-1">
    <mxGraphModel dx="348" dy="1665" grid="1" gridSize="10" guides="1" tooltips="1" connect="1" arrows="1" fold="1" page="1" pageScale="1" pageWidth="850" pageHeight="1100" math="0" shadow="0" extFonts="Permanent Marker^https://fonts.googleapis.com/css?family=Permanent+Marker">
      <root>
        <mxCell id="0" />
        <mxCell id="1" parent="0" />
        <mxCell id="kEK5Fz1w2JEBaXJW5_jl-2" value="Art Items" style="rounded=0;whiteSpace=wrap;html=1;" parent="1" vertex="1">
          <mxGeometry x="550" y="-370" width="120" height="60" as="geometry" />
        </mxCell>
        <mxCell id="W8xeIyj_8SiUb1ao7rAY-14" value="Museum" style="rounded=0;whiteSpace=wrap;html=1;" vertex="1" parent="1">
          <mxGeometry x="130" y="-370" width="120" height="60" as="geometry" />
        </mxCell>
        <mxCell id="W8xeIyj_8SiUb1ao7rAY-15" value="Owns" style="rhombus;whiteSpace=wrap;html=1;" vertex="1" parent="1">
          <mxGeometry x="360" y="-250" width="80" height="80" as="geometry" />
        </mxCell>
        <mxCell id="W8xeIyj_8SiUb1ao7rAY-16" value="Collection" style="rounded=0;whiteSpace=wrap;html=1;" vertex="1" parent="1">
          <mxGeometry x="850" y="-370" width="120" height="60" as="geometry" />
        </mxCell>
        <mxCell id="W8xeIyj_8SiUb1ao7rAY-18" value="Part of" style="rhombus;whiteSpace=wrap;html=1;" vertex="1" parent="1">
          <mxGeometry x="730" y="-380" width="80" height="80" as="geometry" />
        </mxCell>
        <mxCell id="W8xeIyj_8SiUb1ao7rAY-22" value="" style="endArrow=none;html=1;rounded=0;strokeColor=default;exitX=1;exitY=0.5;exitDx=0;exitDy=0;entryX=0;entryY=0.5;entryDx=0;entryDy=0;" edge="1" parent="1" source="kEK5Fz1w2JEBaXJW5_jl-2" target="W8xeIyj_8SiUb1ao7rAY-18">
          <mxGeometry width="50" height="50" relative="1" as="geometry">
            <mxPoint x="460" y="-50" as="sourcePoint" />
            <mxPoint x="490" y="-60" as="targetPoint" />
          </mxGeometry>
        </mxCell>
        <mxCell id="W8xeIyj_8SiUb1ao7rAY-23" value="" style="endArrow=none;html=1;rounded=0;strokeColor=default;exitX=1;exitY=0.5;exitDx=0;exitDy=0;entryX=0;entryY=0.5;entryDx=0;entryDy=0;" edge="1" parent="1" source="W8xeIyj_8SiUb1ao7rAY-18" target="W8xeIyj_8SiUb1ao7rAY-16">
          <mxGeometry width="50" height="50" relative="1" as="geometry">
            <mxPoint x="580" y="-50" as="sourcePoint" />
            <mxPoint x="630" y="-100" as="targetPoint" />
          </mxGeometry>
        </mxCell>
        <mxCell id="W8xeIyj_8SiUb1ao7rAY-25" value="" style="endArrow=none;html=1;rounded=0;strokeColor=default;entryX=1;entryY=0.5;entryDx=0;entryDy=0;exitX=0;exitY=0.5;exitDx=0;exitDy=0;" edge="1" parent="1" source="kEK5Fz1w2JEBaXJW5_jl-2" target="W8xeIyj_8SiUb1ao7rAY-15">
          <mxGeometry width="50" height="50" relative="1" as="geometry">
            <mxPoint x="400" y="-130" as="sourcePoint" />
            <mxPoint x="450" y="-160" as="targetPoint" />
          </mxGeometry>
        </mxCell>
        <mxCell id="W8xeIyj_8SiUb1ao7rAY-27" value="" style="endArrow=none;html=1;rounded=0;strokeColor=default;entryX=1;entryY=0.5;entryDx=0;entryDy=0;exitX=0;exitY=0.5;exitDx=0;exitDy=0;" edge="1" parent="1" source="W8xeIyj_8SiUb1ao7rAY-15" target="W8xeIyj_8SiUb1ao7rAY-14">
          <mxGeometry width="50" height="50" relative="1" as="geometry">
            <mxPoint x="390" y="-240" as="sourcePoint" />
            <mxPoint x="440" y="-290" as="targetPoint" />
          </mxGeometry>
        </mxCell>
        <mxCell id="W8xeIyj_8SiUb1ao7rAY-28" value="Exhibition" style="rounded=0;whiteSpace=wrap;html=1;" vertex="1" parent="1">
          <mxGeometry x="570" width="120" height="60" as="geometry" />
        </mxCell>
        <mxCell id="W8xeIyj_8SiUb1ao7rAY-33" value="Borrows" style="rhombus;whiteSpace=wrap;html=1;" vertex="1" parent="1">
          <mxGeometry x="360" y="-390" width="80" height="80" as="geometry" />
        </mxCell>
        <mxCell id="W8xeIyj_8SiUb1ao7rAY-34" value="Loans" style="rhombus;whiteSpace=wrap;html=1;" vertex="1" parent="1">
          <mxGeometry x="360" y="-530" width="80" height="80" as="geometry" />
        </mxCell>
        <mxCell id="W8xeIyj_8SiUb1ao7rAY-35" value="" style="endArrow=none;html=1;rounded=0;strokeColor=default;exitX=0;exitY=0.5;exitDx=0;exitDy=0;entryX=1;entryY=0.5;entryDx=0;entryDy=0;" edge="1" parent="1" source="W8xeIyj_8SiUb1ao7rAY-34" target="W8xeIyj_8SiUb1ao7rAY-14">
          <mxGeometry width="50" height="50" relative="1" as="geometry">
            <mxPoint x="300" y="-240" as="sourcePoint" />
            <mxPoint x="400" y="-280" as="targetPoint" />
          </mxGeometry>
        </mxCell>
        <mxCell id="W8xeIyj_8SiUb1ao7rAY-36" value="" style="endArrow=none;html=1;rounded=0;strokeColor=default;exitX=1;exitY=0.5;exitDx=0;exitDy=0;entryX=0;entryY=0.5;entryDx=0;entryDy=0;" edge="1" parent="1" source="W8xeIyj_8SiUb1ao7rAY-14" target="W8xeIyj_8SiUb1ao7rAY-33">
          <mxGeometry width="50" height="50" relative="1" as="geometry">
            <mxPoint x="520" y="-190" as="sourcePoint" />
            <mxPoint x="570" y="-240" as="targetPoint" />
          </mxGeometry>
        </mxCell>
        <mxCell id="W8xeIyj_8SiUb1ao7rAY-38" value="" style="endArrow=none;html=1;rounded=0;strokeColor=default;entryX=1;entryY=0.5;entryDx=0;entryDy=0;exitX=0;exitY=0.5;exitDx=0;exitDy=0;" edge="1" parent="1" source="kEK5Fz1w2JEBaXJW5_jl-2" target="W8xeIyj_8SiUb1ao7rAY-33">
          <mxGeometry width="50" height="50" relative="1" as="geometry">
            <mxPoint x="510" y="-110" as="sourcePoint" />
            <mxPoint x="560" y="-160" as="targetPoint" />
          </mxGeometry>
        </mxCell>
        <mxCell id="W8xeIyj_8SiUb1ao7rAY-42" value="" style="endArrow=none;html=1;rounded=0;strokeColor=default;entryX=1;entryY=0.5;entryDx=0;entryDy=0;exitX=0;exitY=0.5;exitDx=0;exitDy=0;" edge="1" parent="1" source="kEK5Fz1w2JEBaXJW5_jl-2" target="W8xeIyj_8SiUb1ao7rAY-34">
          <mxGeometry width="50" height="50" relative="1" as="geometry">
            <mxPoint x="290" y="-120" as="sourcePoint" />
            <mxPoint x="340" y="-170" as="targetPoint" />
            <Array as="points" />
          </mxGeometry>
        </mxCell>
      </root>
    </mxGraphModel>
  </diagram>
</mxfile>
